<svg xmlns="http://www.w3.org/2000/svg" viewBox="0 0 159 110" width="159" height="110">
  <path d="M154 17.5c-1.82-6.73-7.07-12-13.8-13.8C128.47 1.38 79.5 1.38 79.5 1.38S30.53 1.38 18.8 3.7C12.07 5.5 6.82 10.77 5 17.5 2.68 29.23 2.68 54.38 2.68 54.38s0 25.15 2.32 36.88c1.82 6.73 7.07 12 13.8 13.8 11.73 2.32 60.7 2.32 60.7 2.32s48.97 0 60.7-2.32c6.73-1.8 11.98-7.07 13.8-13.8 2.32-11.73 2.32-36.88 2.32-36.88s0-25.15-2.32-36.88z" fill="#FF0000"/>
  <path d="M64.2 78.4L104.6 54.4 64.2 30.4v48z" fill="#FFF"/>
</svg>